<svg xmlns="http://www.w3.org/2000/svg" width="30" height="30" viewBox="0 0 30 30">
    <g>
        <path d="M0 0H30V30H0z" transform="translate(-802 -222) translate(802 222)"/>
        <path fill="#fff" d="M338.641 185.479a9.4 9.4 0 0 0 14.457-8.344 6.7 6.7 0 0 0 1.648-1.711 6.6 6.6 0 0 1-1.9.52 3.309 3.309 0 0 0 1.452-1.828 6.625 6.625 0 0 1-2.1.8 3.306 3.306 0 0 0-5.63 3.014 9.378 9.378 0 0 1-6.81-3.452 3.308 3.308 0 0 0 1.023 4.411 3.29 3.29 0 0 1-1.5-.413 3.308 3.308 0 0 0 2.65 3.282 3.308 3.308 0 0 1-1.492.056 3.306 3.306 0 0 0 3.086 2.295 6.642 6.642 0 0 1-4.884 1.37z" transform="translate(-802 -222) translate(470.358 56.124)"/>
    </g>
</svg>
