<svg xmlns="http://www.w3.org/2000/svg" width="30" height="30" viewBox="0 0 30 30">
    <g>
        <path fill="#fff" d="M0 0H30V30H0z" transform="translate(-885 -221) translate(885 221)"/>
        <g>
            <g>
                <path d="M91.628 170.331c2.181-.021 2.439-.015 3.3.016a4.519 4.519 0 0 1 1.519.267 2.7 2.7 0 0 1 1.565 1.535 4.518 4.518 0 0 1 .3 1.514c.047.861.058 1.119.079 3.3s.015 2.44-.016 3.3a4.525 4.525 0 0 1-.267 1.519 2.706 2.706 0 0 1-1.535 1.565 4.528 4.528 0 0 1-1.514.3c-.861.047-1.119.058-3.3.079s-2.44.015-3.3-.016a4.514 4.514 0 0 1-1.519-.267 2.7 2.7 0 0 1-1.565-1.535 4.524 4.524 0 0 1-.3-1.514c-.048-.861-.058-1.119-.079-3.3s-.015-2.439.016-3.3a4.518 4.518 0 0 1 .267-1.519 2.7 2.7 0 0 1 1.535-1.565 4.518 4.518 0 0 1 1.514-.3c.861-.048 1.119-.058 3.3-.079m-.014-1.471c-2.218.021-2.5.033-3.367.081a6 6 0 0 0-1.979.4 4.178 4.178 0 0 0-2.366 2.412 5.993 5.993 0 0 0-.361 1.986c-.031.872-.038 1.15-.017 3.368s.033 2.5.081 3.367a5.989 5.989 0 0 0 .4 1.979 4.175 4.175 0 0 0 2.412 2.366 6 6 0 0 0 1.986.361c.872.031 1.15.038 3.368.017s2.5-.033 3.367-.081a6.009 6.009 0 0 0 1.979-.4 4.178 4.178 0 0 0 2.366-2.412 6 6 0 0 0 .361-1.987c.031-.871.038-1.15.017-3.368s-.033-2.5-.081-3.367a6 6 0 0 0-.4-1.979 4.177 4.177 0 0 0-2.412-2.366 6 6 0 0 0-1.986-.361c-.872-.031-1.15-.038-3.368-.017" transform="translate(-885 -221) translate(892 228) translate(-83.512 -168.847)"/>
                <path d="M99.211 180.392a4.195 4.195 0 1 0 4.234 4.154 4.195 4.195 0 0 0-4.234-4.154m.066 6.917a2.723 2.723 0 1 1 2.7-2.748 2.723 2.723 0 0 1-2.7 2.748" transform="translate(-885 -221) translate(892 228) translate(-91.071 -176.406)"/>
                <path d="M118.835 177.924a.98.98 0 1 1-.989-.971.98.98 0 0 1 .989.971" transform="translate(-885 -221) translate(892 228) translate(-105.356 -174.154)"/>
            </g>
        </g>
    </g>
</svg>
