<svg xmlns="http://www.w3.org/2000/svg" width="30" height="30" viewBox="0 0 30 30">
    <g>
        <path fill="#fff" d="M0 0H30V30H0z" transform="translate(-927 -221) translate(927 221)"/>
        <path d="M96.869 464.6a2.188 2.188 0 0 0-1.54-1.55 51.722 51.722 0 0 0-6.8-.366 51.718 51.718 0 0 0-6.8.366 2.189 2.189 0 0 0-1.54 1.55 24.655 24.655 0 0 0 0 8.438 2.189 2.189 0 0 0 1.54 1.55 51.714 51.714 0 0 0 6.8.366 51.718 51.718 0 0 0 6.8-.366 2.188 2.188 0 0 0 1.54-1.55 24.633 24.633 0 0 0 0-8.438zm-10.125 6.81v-5.179l4.556 2.589z" transform="translate(-927 -221) translate(853.183 -232.686)"/>
    </g>
</svg>
